<?xml version="1.0" standalone="no"?>
<!DOCTYPE svg PUBLIC "-//W3C//DTD SVG 20010904//EN"
 "http://www.w3.org/TR/2001/REC-SVG-20010904/DTD/svg10.dtd">
<svg version="1.0" xmlns="http://www.w3.org/2000/svg"
 width="147.000000pt" height="40.000000pt" viewBox="0 0 147.000000 40.000000"
 preserveAspectRatio="xMidYMid meet">

<g transform="translate(0.000000,40.000000) scale(0.100000,-0.100000)"
fill="#000000" stroke="none">
<path d="M630 225 c0 -168 1 -175 20 -175 19 0 20 7 20 175 0 168 -1 175 -20
175 -19 0 -20 -7 -20 -175z"/>
<path d="M1150 330 l0 -69 -87 -3 -88 -3 -3 -92 c-3 -113 -1 -115 131 -111
l92 3 3 173 2 172 -25 0 c-24 0 -25 -2 -25 -70z m0 -170 l0 -70 -65 0 -65 0 0
70 0 70 65 0 65 0 0 -70z"/>
<path d="M727 253 c-4 -3 -7 -46 -7 -94 0 -109 3 -111 132 -107 79 3 93 6 96
21 3 15 -6 17 -87 17 -90 0 -91 0 -91 25 0 25 1 25 78 25 87 0 102 8 102 56 0
63 -2 64 -114 64 -57 0 -106 -3 -109 -7z m173 -53 l0 -30 -65 0 -65 0 0 30 0
30 65 0 65 0 0 -30z"/>
<path d="M1440 125 c0 -60 3 -75 15 -75 12 0 15 15 15 75 0 60 -3 75 -15 75
-12 0 -15 -15 -15 -75z"/>
<path d="M1310 76 c0 -61 3 -76 15 -76 9 0 15 9 15 25 0 19 5 25 23 25 37 0
49 14 45 56 -3 39 -3 39 -50 42 l-48 3 0 -75z m70 24 c0 -13 -7 -20 -20 -20
-13 0 -20 7 -20 20 0 13 7 20 20 20 13 0 20 -7 20 -20z"/>
<path d="M1230 75 c0 -18 5 -25 20 -25 15 0 20 7 20 25 0 18 -5 25 -20 25 -15
0 -20 -7 -20 -25z"/>
</g>
</svg>
